<svg width="220" height="66" viewBox="0 0 220 66" fill="none" xmlns="http://www.w3.org/2000/svg">
<g clip-path="url(#clip0_12_32630)">
<mask id="mask0_12_32630" style="mask-type:luminance" maskUnits="userSpaceOnUse" x="0" y="0" width="220" height="66">
<path d="M219.699 0.570801H0V65.2892H219.699V0.570801Z" fill="white"/>
</mask>
<g mask="url(#mask0_12_32630)">
<path d="M1.35946 46.4181C1.17735 46.4231 0.996303 46.3886 0.828802 46.317C0.661301 46.2453 0.511318 46.1382 0.38918 46.003C0.141494 45.753 0.00176873 45.4158 2.88245e-05 45.0639C-0.0030311 44.868 0.0196468 44.6727 0.0674812 44.4828L15.4363 2.97331C15.5682 2.49807 15.8371 2.07218 16.2094 1.74878C16.6652 1.37945 17.2428 1.19432 17.8283 1.22991H26.0939C26.6777 1.19513 27.2534 1.38024 27.7076 1.74878C28.0816 2.07074 28.3508 2.49718 28.4807 2.97331L43.8495 44.4828C43.8974 44.6727 43.9201 44.868 43.917 45.0639C43.9153 45.4158 43.7755 45.753 43.5278 46.003C43.4057 46.1382 43.2557 46.2453 43.0883 46.317C42.9207 46.3886 42.7397 46.4231 42.5576 46.4181H35.8434C35.5884 46.4401 35.3315 46.4115 35.0876 46.334C34.8436 46.2566 34.6174 46.1318 34.4217 45.9667C34.1661 45.7307 33.9674 45.4397 33.8406 45.1158L31.0646 37.8931H12.8524L10.0764 45.1158C9.94826 45.436 9.74964 45.7233 9.49529 45.9563C9.29983 46.1216 9.07356 46.2466 8.82958 46.3241C8.58556 46.4015 8.32867 46.43 8.07359 46.4077L1.35946 46.4181ZM15.2443 29.5497H28.6104L21.9585 10.9639L15.2443 29.5497Z" fill="#A30041"/>
<path d="M49.334 46.4181C49.1199 46.4261 48.9065 46.3898 48.7071 46.3115C48.5077 46.2333 48.3266 46.1147 48.1752 45.9633C48.0237 45.8118 47.9051 45.6307 47.8268 45.4313C47.7486 45.2319 47.7123 45.0185 47.7203 44.8044V2.18459C47.7123 1.97053 47.7486 1.75712 47.8268 1.55772C47.9051 1.35832 48.0237 1.17721 48.1752 1.02574C48.3266 0.874273 48.5077 0.755697 48.7071 0.677434C48.9065 0.599172 49.1199 0.562907 49.334 0.570911H55.7939C55.9983 0.567789 56.2012 0.606189 56.3901 0.683783C56.5795 0.761378 56.7507 0.876551 56.8939 1.02233C57.0454 1.17448 57.1632 1.35627 57.241 1.55629C57.3189 1.7563 57.3541 1.97021 57.3453 2.18459V44.8044C57.3541 45.0188 57.3189 45.2327 57.241 45.4327C57.1632 45.6327 57.0454 45.8145 56.8939 45.9666C56.7507 46.1124 56.5795 46.2276 56.3901 46.3052C56.2012 46.3828 55.9983 46.4212 55.7939 46.4181H49.334Z" fill="#A30041"/>
<path d="M67.0947 46.4181C66.8809 46.4261 66.6671 46.3898 66.4679 46.3115C66.2687 46.2333 66.0876 46.1147 65.9361 45.9633C65.7846 45.8118 65.6657 45.6307 65.5874 45.4313C65.5096 45.2319 65.4732 45.0185 65.481 44.8044V2.18459C65.4732 1.97053 65.5096 1.75712 65.5874 1.55772C65.6657 1.35832 65.7846 1.17721 65.9361 1.02574C66.0876 0.874273 66.2687 0.755697 66.4679 0.677434C66.6671 0.599172 66.8809 0.562907 67.0947 0.570911H73.5546C73.7585 0.567586 73.9604 0.605913 74.1487 0.68354C74.3371 0.761167 74.5072 0.876455 74.6494 1.02233C74.8009 1.17448 74.9187 1.35627 74.9965 1.55629C75.0744 1.7563 75.1096 1.97021 75.1008 2.18459V44.8044C75.1096 45.0188 75.0744 45.2327 74.9965 45.4327C74.9187 45.6327 74.8009 45.8145 74.6494 45.9666C74.5072 46.1125 74.3371 46.2278 74.1487 46.3055C73.9604 46.3831 73.7585 46.4214 73.5546 46.4181H67.0947Z" fill="#A30041"/>
<path d="M97.9572 60.6302C94.7714 60.6302 92.1236 60.2099 90.0134 59.3694C88.1662 58.6891 86.4674 57.6586 85.0115 56.334C83.9281 55.3372 83.0476 54.1407 82.4171 52.8109C81.9901 51.96 81.7063 51.0449 81.5766 50.1021C81.5491 49.8862 81.576 49.6667 81.6549 49.4637C81.7338 49.2608 81.8619 49.0807 82.028 48.9398C82.345 48.6491 82.7601 48.488 83.1902 48.4884H90.1016C90.4575 48.4771 90.8083 48.5788 91.103 48.779C91.4268 49.0341 91.6628 49.3843 91.7775 49.7804C92.0281 50.3559 92.3322 50.9066 92.6855 51.4252C93.1354 52.0605 93.7487 52.5623 94.4601 52.8783C95.4687 53.3079 96.561 53.5067 97.6563 53.4594C98.9363 53.4994 100.211 53.2789 101.403 52.8109C102.392 52.3815 103.185 51.5989 103.628 50.6158C104.181 49.2881 104.435 47.8549 104.37 46.4181V42.0908C103.264 43.2657 101.936 44.2108 100.463 44.8719C98.6395 45.6536 96.6668 46.0272 94.6832 45.9667C92.6637 46.0168 90.6547 45.664 88.7733 44.929C87.1414 44.2694 85.6917 43.2286 84.5445 41.8936C83.3739 40.4983 82.4924 38.8846 81.9501 37.146C81.3125 35.1174 80.9633 33.0091 80.9124 30.8832C80.8642 29.721 80.8642 28.5795 80.9124 27.4587C80.97 25.376 81.3197 23.3116 81.9501 21.3257C82.5012 19.5721 83.3817 17.9397 84.5445 16.5158C85.6834 15.1404 87.1326 14.0555 88.7733 13.3507C90.6401 12.5547 92.6539 12.1605 94.6832 12.1936C96.7877 12.1336 98.8741 12.5991 100.754 13.5479C102.348 14.3778 103.76 15.5194 104.905 16.9049V14.4559C104.901 14.0341 105.063 13.6278 105.356 13.3248C105.493 13.1688 105.663 13.0445 105.853 12.9602C106.043 12.876 106.249 12.834 106.456 12.837H112.781C113.207 12.8488 113.612 13.0231 113.913 13.3242C114.214 13.6253 114.388 14.0303 114.4 14.4559L114.462 45.5153C114.462 48.7427 113.838 51.4771 112.589 53.7189C111.331 55.9645 109.4 57.7593 107.069 58.8505C104.613 60.0335 101.575 60.6266 97.9572 60.6302ZM97.6355 38.412C98.9835 38.4727 100.314 38.094 101.428 37.3328C102.383 36.6422 103.131 35.7038 103.592 34.6191C104.064 33.5257 104.326 32.3536 104.365 31.1634C104.412 30.6913 104.433 30.0115 104.433 29.1295C104.433 28.2474 104.433 27.5729 104.365 27.0955C104.326 25.9054 104.064 24.7333 103.592 23.6398C103.134 22.5675 102.385 21.6453 101.428 20.9781C100.268 20.2933 98.9446 19.9347 97.5976 19.9402C96.2501 19.9457 94.9296 20.315 93.7751 21.0092C92.8235 21.7215 92.1018 22.6976 91.6997 23.8163C91.255 25.0423 90.9945 26.3275 90.9266 27.6299C90.8814 28.6677 90.8814 29.6795 90.9266 30.6653C90.9909 31.9868 91.2514 33.2913 91.6997 34.5361C92.1013 35.6564 92.823 36.6342 93.7751 37.3483C94.913 38.1113 96.2678 38.4846 97.6355 38.412Z" fill="#FF8600"/>
<path fill-rule="evenodd" clip-rule="evenodd" d="M157.814 14.2875C158.485 13.9593 159.196 13.6767 159.946 13.4396C157.769 17.8959 153.913 25.1976 149.225 30.9873C146.714 34.0884 143.992 36.7214 141.19 38.261C140.908 38.4162 140.626 38.56 140.342 38.692C141.359 37.3814 141.908 35.4955 141.988 33.0342C142.03 32.3908 142.051 31.526 142.051 30.4398C142.051 29.3658 142.051 28.5044 141.988 27.8455C141.902 25.3445 141.32 23.4282 140.245 22.0964C139.169 20.7646 137.576 20.0971 135.466 20.0936C133.353 20.0936 131.747 20.7612 130.651 22.0964C130.485 22.2987 130.332 22.512 130.194 22.7346C129.314 24.2932 128.86 26.0558 128.876 27.8455C128.835 28.4889 128.814 29.3502 128.814 30.4398C128.814 31.5294 128.814 32.3804 128.876 33.0342C128.966 35.5766 129.558 37.5033 130.651 38.8143C131.744 40.1254 133.349 40.7826 135.466 40.786C135.755 40.786 136.034 40.7737 136.303 40.749C138.138 40.7084 139.945 40.1293 141.69 39.1705C144.661 37.5375 147.484 34.7872 150.032 31.6403C155.097 25.3848 159.184 17.4264 161.275 13.0763C162.888 12.7007 164.663 12.5129 166.598 12.5129C169.608 12.4267 172.598 13.0339 175.336 14.2875C177.655 15.3915 179.606 17.1408 180.955 19.3257C182.323 21.6648 183.069 24.3161 183.119 27.0257C183.202 27.8455 183.249 28.8054 183.249 29.9002C183.249 30.995 183.202 31.9757 183.119 32.837C183.061 35.5306 182.349 38.1698 181.043 40.5266C179.757 42.7351 177.833 44.5024 175.523 45.5959C173.101 46.779 170.132 47.3705 166.614 47.3705C163.096 47.3705 160.103 46.779 157.637 45.5959C155.326 44.5027 153.399 42.7354 152.111 40.5266C151.971 40.273 151.838 40.0162 151.711 39.7564C154.836 36.8734 157.703 33.4978 159.946 29.9373C159.946 31.0266 159.946 31.8772 160.009 32.5309C160.098 35.0733 160.69 37.0001 161.783 38.311C162.876 39.6221 164.481 40.2741 166.598 40.2672V40.2827C168.705 40.2827 170.298 39.6255 171.377 38.311C172.456 36.9966 173.037 35.0699 173.12 32.5309C173.162 31.8875 173.183 31.0227 173.183 29.9365C173.183 28.8626 173.183 28.0011 173.12 27.3422C173.034 24.8412 172.453 22.9249 171.377 21.5931C170.301 20.2613 168.708 19.5938 166.598 19.5903C164.485 19.5903 162.879 20.2579 161.783 21.5931C161.617 21.7954 161.464 22.0087 161.326 22.2313C160.446 23.7899 159.992 25.5525 160.009 27.3422C159.998 27.5018 159.989 27.6749 159.982 27.8615C157.748 31.7823 154.681 35.558 151.264 38.7553C151.257 38.7383 151.251 38.7213 151.243 38.7042C151.101 38.8649 150.952 39.0223 150.807 39.1578C150.802 39.1685 150.798 39.1792 150.794 39.1898C150.624 39.3443 150.454 39.4974 150.283 39.649C147.367 42.2339 144.255 44.369 141.243 45.8076C138.402 47.1641 135.681 47.8865 133.311 47.8126C130.67 47.6178 128.397 47.0518 126.49 46.1148C124.178 45.0216 122.252 43.2543 120.964 41.0455C119.66 38.6879 118.948 36.0492 118.888 33.3559C118.847 32.4997 118.821 31.5191 118.821 30.4191C118.821 29.3191 118.847 28.3436 118.888 27.5445C118.945 24.8269 119.701 22.1697 121.083 19.829C122.426 17.6505 124.371 15.9064 126.682 14.8063C129.103 13.6233 132.031 13.0318 135.466 13.0318C138.476 12.9456 141.466 13.5527 144.204 14.8063C146.523 15.9103 148.474 17.6596 149.823 19.8445C150.251 20.5766 150.619 21.3391 150.923 22.1245C151.264 21.1496 151.701 20.2067 152.231 19.3101C153.57 17.1339 155.508 15.3901 157.814 14.2875ZM141.69 46.744C144.31 45.4928 146.984 43.7422 149.537 41.6495C148.264 43.5766 146.486 45.1229 144.391 46.1148C143.054 46.7679 141.548 47.2408 139.874 47.5333C140.476 47.2979 141.082 47.0341 141.69 46.744Z" fill="#FF8600"/>
<path d="M200.2 47.0666C198.232 47.0998 196.277 46.7381 194.451 46.003C192.806 45.3129 191.345 44.2466 190.186 42.8898C188.996 41.4715 188.103 39.8289 187.56 38.0591C186.931 36.0389 186.563 33.9464 186.466 31.8327C186.419 31.0129 186.398 30.2761 186.398 29.6016C186.398 28.927 186.398 28.2162 186.466 27.4379C186.515 25.3544 186.865 23.2888 187.503 21.3049C188.073 19.5485 188.971 17.9162 190.15 16.4949C191.307 15.1242 192.767 14.0408 194.415 13.3299C196.241 12.5511 198.21 12.1657 200.195 12.1987C202.17 12.1464 204.132 12.5327 205.939 13.3299C207.446 14.0194 208.79 15.0203 209.882 16.2666V2.18459C209.874 1.97053 209.91 1.75712 209.989 1.55772C210.067 1.35832 210.186 1.17721 210.337 1.02574C210.488 0.874273 210.67 0.755697 210.869 0.677434C211.068 0.599172 211.282 0.562907 211.496 0.570911H218.174C218.377 0.567279 218.579 0.605465 218.768 0.68311C218.956 0.760755 219.126 0.876208 219.268 1.02233C219.42 1.17448 219.538 1.35627 219.616 1.55629C219.693 1.7563 219.729 1.97021 219.72 2.18459V44.8044C219.729 45.0188 219.693 45.2327 219.616 45.4327C219.538 45.6327 219.42 45.8145 219.268 45.9666C219.126 46.1128 218.956 46.2283 218.768 46.3059C218.579 46.3835 218.377 46.4217 218.174 46.4181H211.947C211.743 46.4218 211.54 46.3837 211.351 46.306C211.162 46.2284 210.99 46.1129 210.847 45.9666C210.696 45.8145 210.578 45.6327 210.5 45.4327C210.422 45.2327 210.387 45.0188 210.396 44.8044V42.6096C209.27 43.9398 207.887 45.0273 206.328 45.8058C204.414 46.7063 202.314 47.1385 200.2 47.0666ZM203.168 39.3148C204.535 39.3824 205.886 38.9976 207.013 38.2199C207.964 37.5065 208.701 36.5441 209.14 35.4388C209.603 34.2822 209.856 33.0522 209.887 31.8067C209.97 30.9913 210.012 30.1722 210.012 29.3525C210.013 28.5535 209.971 27.7551 209.887 26.9605C209.849 25.7915 209.584 24.641 209.109 23.5723C208.638 22.5264 207.89 21.6292 206.945 20.978C205.785 20.2932 204.462 19.9346 203.115 19.9401C201.767 19.9456 200.447 20.315 199.292 21.0091C198.343 21.7258 197.634 22.7136 197.258 23.8421C196.836 25.0731 196.587 26.3565 196.516 27.6558C196.386 28.9862 196.386 30.3259 196.516 31.6563C196.587 32.9539 196.836 34.2356 197.258 35.4648C197.637 36.586 198.346 37.5664 199.292 38.277C200.437 39.0341 201.798 39.3983 203.168 39.3148Z" fill="#FF8600"/>
<path d="M18.7934 65.0973C18.7383 65.102 18.683 65.0947 18.6311 65.0755C18.5792 65.0568 18.532 65.0267 18.493 64.9878C18.454 64.9489 18.4239 64.9017 18.405 64.8498C18.3861 64.7979 18.3787 64.7424 18.3835 64.6874V55.7992C18.3805 55.7442 18.3886 55.6892 18.4074 55.6378C18.4261 55.5859 18.455 55.5387 18.4925 55.4982C18.5739 55.422 18.682 55.381 18.7934 55.3841H19.1099C19.2213 55.381 19.3293 55.422 19.4109 55.4982C19.4483 55.5387 19.4772 55.5859 19.4959 55.6378C19.5146 55.6892 19.5228 55.7442 19.5198 55.7992V56.4529C19.8172 56.0653 20.1964 55.7483 20.6302 55.5242C21.1162 55.2943 21.6495 55.1828 22.1868 55.1973C22.8032 55.161 23.4165 55.3088 23.9487 55.6222C24.4809 55.9351 24.9079 56.3995 25.1755 56.9562C25.464 56.4166 25.9017 55.972 26.4363 55.6746C27.0213 55.3498 27.6818 55.1848 28.3509 55.1973C28.9764 55.189 29.5927 55.3488 30.1359 55.6591C30.6767 55.9761 31.1103 56.4478 31.3811 57.0133C31.7086 57.7138 31.8652 58.4822 31.8377 59.2548V64.6874C31.8425 64.7424 31.8351 64.7979 31.8162 64.8498C31.7973 64.9017 31.7672 64.9489 31.7282 64.9878C31.6891 65.0267 31.642 65.0568 31.5901 65.0755C31.5382 65.0947 31.4828 65.102 31.4278 65.0973H31.1217C31.0666 65.102 31.0113 65.0947 30.9594 65.0755C30.9075 65.0568 30.8603 65.0267 30.8213 64.9878C30.7823 64.9489 30.7522 64.9017 30.7333 64.8498C30.7144 64.7979 30.707 64.7424 30.7118 64.6874V59.4416C30.746 58.7842 30.6233 58.1278 30.3538 57.527C30.158 57.1109 29.8295 56.771 29.4198 56.5619C29.0298 56.3741 28.6021 56.2781 28.1693 56.2817C27.7725 56.2874 27.3822 56.3834 27.0278 56.5619C26.6153 56.7762 26.2798 57.1135 26.0679 57.527C25.7814 58.1227 25.6494 58.7811 25.684 59.4416V64.6874C25.6887 64.7424 25.6813 64.7979 25.6624 64.8498C25.6435 64.9017 25.6134 64.9489 25.5744 64.9878C25.5354 65.0267 25.4882 65.0568 25.4364 65.0755C25.3845 65.0947 25.3291 65.102 25.2741 65.0973H24.9575C24.9025 65.102 24.8471 65.0947 24.7952 65.0755C24.7434 65.0568 24.6962 65.0267 24.6572 64.9878C24.6181 64.9489 24.5881 64.9017 24.5691 64.8498C24.5502 64.7979 24.5429 64.7424 24.5476 64.6874V59.4416C24.5824 58.7821 24.454 58.1247 24.1741 57.527C23.9655 57.1124 23.6313 56.7746 23.2193 56.5619C22.8415 56.3767 22.426 56.2807 22.0052 56.2817C21.6084 56.2874 21.218 56.3834 20.8637 56.5619C20.4512 56.7762 20.1157 57.1135 19.9038 57.527C19.6188 58.1159 19.4868 58.7671 19.5198 59.4209V64.6874C19.5245 64.7424 19.5172 64.7979 19.4983 64.8498C19.4793 64.9017 19.4493 64.9489 19.4103 64.9878C19.3712 65.0267 19.3241 65.0568 19.2722 65.0755C19.2203 65.0947 19.1649 65.102 19.1099 65.0973H18.7934Z" fill="#FF8600"/>
<path d="M37.395 65.2832C36.8234 65.2894 36.2584 65.1613 35.745 64.9096C35.2637 64.6797 34.844 64.3378 34.5205 63.9134C34.2131 63.5076 34.049 63.0116 34.0535 62.5021C34.0451 62.1041 34.1355 61.7097 34.3165 61.3548C34.4976 60.9999 34.7637 60.6954 35.0913 60.4681C35.8831 59.916 36.8028 59.5746 37.7634 59.4771L40.7158 59.0671V58.4134C40.7306 58.1259 40.6841 57.8385 40.5794 57.5702C40.4748 57.302 40.3143 57.0586 40.1087 56.8568C39.558 56.4308 38.8672 56.2269 38.1733 56.286C37.6285 56.2632 37.0883 56.3965 36.6167 56.67C36.2361 56.9009 35.9452 57.2537 35.7917 57.6714C35.7739 57.7518 35.7291 57.8234 35.6649 57.8743C35.6007 57.9251 35.5209 57.9526 35.4389 57.9516H35.1172C35.0583 57.9578 34.9988 57.95 34.9437 57.9282C34.8886 57.9064 34.8396 57.8722 34.8007 57.8271C34.7368 57.744 34.7037 57.6413 34.7073 57.5365C34.7248 57.3071 34.7921 57.084 34.9045 56.8827C35.0644 56.5875 35.2772 56.3234 35.5323 56.1044C35.8359 55.8284 36.1877 55.6105 36.57 55.461C37.0775 55.2721 37.6164 55.1824 38.1578 55.1964C38.7786 55.1782 39.3971 55.2805 39.979 55.4973C40.3857 55.6473 40.7511 55.8917 41.0452 56.2097C41.3392 56.5283 41.5535 56.9118 41.6705 57.3289C41.7782 57.6984 41.8341 58.0808 41.8365 58.4653V64.6917C41.8413 64.7472 41.8339 64.8022 41.815 64.8541C41.7961 64.906 41.766 64.9532 41.727 64.9921C41.6879 65.0315 41.6408 65.0616 41.5889 65.0803C41.5371 65.099 41.4816 65.1068 41.4266 65.1016H41.1101C41.0551 65.1068 40.9997 65.099 40.9478 65.0803C40.8959 65.0616 40.8488 65.0315 40.8098 64.9921C40.7707 64.9532 40.7406 64.906 40.7218 64.8541C40.7028 64.8022 40.6954 64.7472 40.7002 64.6917V63.794C40.5203 64.0483 40.3054 64.275 40.062 64.4686C39.7497 64.7135 39.3991 64.9044 39.0243 65.0341C38.4995 65.2105 37.9484 65.2946 37.395 65.2832ZM37.5818 64.2039C38.1234 64.2086 38.6579 64.0804 39.1384 63.8304C39.6232 63.5699 40.0175 63.1683 40.2696 62.6785C40.5701 62.0735 40.7145 61.4031 40.6898 60.7275V60.0945L38.2771 60.4266C37.4643 60.4982 36.6757 60.7405 35.963 61.1374C35.7316 61.2614 35.5373 61.4441 35.3996 61.6677C35.262 61.8908 35.1861 62.1466 35.1795 62.4087C35.1625 62.7776 35.2889 63.1382 35.5323 63.4153C35.7799 63.6866 36.0924 63.89 36.4403 64.0068C36.8146 64.1417 37.21 64.2086 37.6078 64.2039H37.5818Z" fill="#FF8600"/>
<path d="M45.2038 65.0964C45.149 65.1006 45.094 65.0923 45.0425 65.0731C44.991 65.0539 44.9443 65.0238 44.9054 64.9848C44.8666 64.9465 44.8365 64.8992 44.8173 64.8479C44.798 64.7965 44.79 64.7415 44.7939 64.6865V55.8139C44.7912 55.7578 44.8 55.7018 44.8196 55.6494C44.8392 55.5965 44.8693 55.5487 44.9081 55.5077C44.945 55.4667 44.9907 55.434 45.0419 55.4123C45.0931 55.391 45.1484 55.3811 45.2038 55.3832H45.5048C45.5615 55.3827 45.6178 55.3936 45.6704 55.4148C45.723 55.4361 45.7707 55.4678 45.8109 55.5077C45.851 55.5482 45.8827 55.5959 45.904 55.6483C45.9255 55.7007 45.9361 55.7573 45.9354 55.8139V56.6752C46.1422 56.2533 46.4835 55.9119 46.9057 55.7049C47.3925 55.4781 47.9255 55.3681 48.4623 55.3832H49.1524C49.2077 55.3806 49.263 55.3889 49.3147 55.4091C49.3665 55.4289 49.4134 55.459 49.4526 55.4984C49.4917 55.5373 49.5222 55.5845 49.542 55.6364C49.5618 55.6878 49.5705 55.7433 49.5675 55.7983V56.0577C49.5703 56.1693 49.5293 56.2772 49.4534 56.3587C49.413 56.396 49.3656 56.4251 49.3139 56.4438C49.2623 56.4624 49.2073 56.4707 49.1524 56.4676H48.3534C48.0279 56.4422 47.7007 56.4873 47.3944 56.5999C47.0881 56.7131 46.8099 56.891 46.5791 57.1219C46.3482 57.3528 46.1702 57.6309 46.0573 57.9371C45.9444 58.2437 45.8993 58.5706 45.9251 58.8959V64.6865C45.9272 64.7431 45.9173 64.7991 45.8958 64.851C45.8743 64.9029 45.8418 64.9496 45.8005 64.9874C45.7163 65.0622 45.6066 65.1011 45.4944 65.0964H45.2038Z" fill="#FF8600"/>
<path d="M51.726 65.0979C51.6711 65.1005 51.6161 65.0928 51.5644 65.0741C51.5127 65.0554 51.4653 65.0263 51.425 64.989C51.3491 64.9075 51.3081 64.7991 51.3109 64.688V52.235C51.3079 52.1797 51.3166 52.1244 51.3364 52.0727C51.3562 52.021 51.3866 51.974 51.4258 51.9348C51.465 51.8957 51.5119 51.8652 51.5637 51.8454C51.6154 51.8256 51.6707 51.8169 51.726 51.8199H52.0425C52.097 51.8181 52.1514 51.8272 52.2018 51.8468C52.2526 51.8664 52.2993 51.8961 52.3382 51.9341C52.3771 51.9734 52.4078 52.0205 52.4275 52.0724C52.4472 52.1242 52.4555 52.1796 52.4524 52.235V58.8456L56.6033 55.6909C56.7206 55.5876 56.8493 55.4989 56.9873 55.4262C57.1154 55.3811 57.2514 55.3619 57.3868 55.3692H57.7396C57.79 55.3676 57.8403 55.3759 57.8875 55.3936C57.9347 55.4112 57.9778 55.4382 58.0146 55.4729C58.0484 55.5087 58.0743 55.5513 58.0914 55.5975C58.108 55.6442 58.1158 55.6935 58.1132 55.7428C58.1101 55.8055 58.094 55.8673 58.0665 55.9244C58.0224 56.0053 57.9555 56.0717 57.8745 56.1163L53.1736 59.7225L58.3623 64.3508C58.5231 64.5012 58.601 64.6258 58.601 64.7244C58.6056 64.7742 58.5994 64.825 58.5823 64.8728C58.5652 64.92 58.5382 64.9636 58.5024 64.9988C58.4666 65.0346 58.4235 65.0621 58.3758 65.0793C58.3286 65.0964 58.2777 65.1026 58.2274 65.0979H57.9316C57.7952 65.1042 57.6582 65.0886 57.5269 65.0512C57.3884 64.9802 57.2607 64.8894 57.1481 64.7814L52.4783 60.6305V64.7036C52.482 64.7581 52.4742 64.8131 52.455 64.865C52.4358 64.9163 52.4057 64.963 52.3668 65.0019C52.3279 65.0409 52.2812 65.071 52.2298 65.0902C52.1784 65.1094 52.1234 65.1171 52.0684 65.1135L51.726 65.0979Z" fill="#FF8600"/>
<path d="M63.5509 65.2836C63.0139 65.3085 62.4774 65.2156 61.9798 65.0112C61.4827 64.8068 61.0359 64.496 60.6712 64.1006C59.9323 63.2263 59.5053 62.131 59.457 60.9874C59.457 60.8006 59.457 60.5515 59.457 60.2402C59.457 59.9289 59.457 59.6798 59.457 59.4931C59.5022 58.7127 59.7071 57.9499 60.0589 57.2515C60.3718 56.6279 60.8538 56.1048 61.4495 55.7416C62.0877 55.3758 62.8157 55.1963 63.5509 55.2228C64.3318 55.1999 65.1023 55.4018 65.7717 55.8039C66.3964 56.205 66.8877 56.783 67.183 57.4643C67.5332 58.2831 67.7013 59.1682 67.6759 60.0586V60.3388C67.679 60.3948 67.6697 60.4504 67.6489 60.5022C67.6287 60.5541 67.597 60.6014 67.5566 60.6397C67.472 60.7139 67.3625 60.7529 67.2504 60.7487H60.5778V60.9355C60.6011 61.4891 60.7355 62.0329 60.9721 62.5336C61.1947 63.0255 61.5418 63.4515 61.9787 63.7685C62.4327 64.0907 62.9786 64.2578 63.5353 64.2459C64.3365 64.2775 65.1189 63.9989 65.7198 63.4676C65.8734 63.3394 66.0109 63.1931 66.1297 63.0317C66.1961 62.9171 66.2864 62.818 66.3943 62.7412C66.4882 62.7043 66.5894 62.6888 66.6901 62.6945H66.991C67.0974 62.6914 67.2011 62.7287 67.2816 62.7982C67.3205 62.8304 67.3501 62.8724 67.3672 62.9202C67.3848 62.9674 67.389 63.0188 67.3801 63.068C67.3418 63.3036 67.2437 63.5252 67.0948 63.7114C66.8789 64.0015 66.62 64.2573 66.3268 64.469C65.9595 64.7352 65.5537 64.9432 65.1231 65.0864C64.613 65.2369 64.0822 65.3033 63.5509 65.2836ZM60.5778 59.6435H66.5188V59.5657C66.5282 58.9856 66.4057 58.4107 66.1608 57.8846C65.9361 57.3984 65.576 56.9874 65.1231 56.7015C64.6447 56.3975 64.0864 56.2439 63.5198 56.2605C62.9547 56.2434 62.398 56.397 61.9217 56.7015C61.4801 56.9916 61.1309 57.4025 60.9151 57.8846C60.6764 58.4122 60.5576 58.9866 60.5674 59.5657L60.5778 59.6435Z" fill="#FF8600"/>
<path d="M73.316 65.0971C72.7748 65.1282 72.2383 64.9845 71.7853 64.6872C71.4097 64.408 71.1352 64.0147 71.0018 63.5664C70.8462 63.0517 70.7709 62.5162 70.7787 61.9787V56.4683H69.3207C69.2657 56.473 69.2102 56.4657 69.1583 56.447C69.1064 56.4278 69.0592 56.3977 69.0203 56.3588C68.9814 56.3199 68.9513 56.2727 68.9326 56.2208C68.9134 56.1689 68.9061 56.1134 68.9108 56.0584V55.7989C68.9077 55.7439 68.916 55.6889 68.9347 55.6376C68.9533 55.5857 68.9824 55.5385 69.0198 55.498C69.1012 55.4222 69.2091 55.3813 69.3207 55.3839H70.7787V52.2707C70.7756 52.2158 70.7839 52.1608 70.8026 52.1092C70.8213 52.0574 70.8503 52.0101 70.8877 51.9698C70.9691 51.8938 71.0771 51.8528 71.1886 51.8556H71.5051C71.6167 51.8528 71.7246 51.8938 71.8061 51.9698C71.8434 52.0101 71.8725 52.0574 71.8912 52.1092C71.9099 52.1608 71.9182 52.2158 71.915 52.2707V55.3839H74.2344C74.2889 55.3823 74.3433 55.3911 74.3937 55.4108C74.4445 55.4306 74.4912 55.4601 74.5301 55.498C74.5691 55.5374 74.5997 55.5847 74.6194 55.6365C74.6391 55.6884 74.6474 55.7434 74.6443 55.7989V56.0584C74.6479 56.1134 74.6401 56.1684 74.6209 56.2197C74.6017 56.2711 74.5716 56.3178 74.5327 56.3567C74.4938 56.3956 74.4471 56.4257 74.3957 56.4449C74.3444 56.4641 74.2894 56.4724 74.2344 56.4683H71.915V61.906C71.8875 62.4446 72.0001 62.9811 72.2419 63.4626C72.3654 63.6551 72.5403 63.8092 72.7463 63.9083C72.9523 64.0069 73.1821 64.0469 73.4094 64.023H74.4471C74.5021 64.0194 74.5571 64.0272 74.6085 64.0464C74.6599 64.0655 74.7065 64.0956 74.7455 64.1346C74.7844 64.1735 74.8145 64.2202 74.8337 64.2715C74.8529 64.3229 74.8607 64.3779 74.857 64.4329V64.6923C74.8607 64.7473 74.8529 64.8023 74.8337 64.8537C74.8145 64.9051 74.7844 64.9518 74.7455 64.9907C74.7065 65.0296 74.6599 65.0597 74.6085 65.0789C74.5571 65.0981 74.5021 65.1064 74.4471 65.1022L73.316 65.0971Z" fill="#FF8600"/>
</g>
</g>
<defs>
<clipPath id="clip0_12_32630">
<rect width="220" height="64.8585" fill="white" transform="translate(0 0.570801)"/>
</clipPath>
</defs>
</svg>
